name Walk4.mot
datacolumns 19
datarows 15
range 1.25000000 1.32000000
endheader

                time	   L_ground_force_vx	   L_ground_force_vy	   L_ground_force_vz	   L_ground_force_px	   L_ground_force_py	   L_ground_force_pz	   R_ground_force_vx	   R_ground_force_vy	   R_ground_force_vz	   R_ground_force_px	   R_ground_force_py	   R_ground_force_pz	   L_ground_torque_x	   L_ground_torque_y	   L_ground_torque_z	   R_ground_torque_x	   R_ground_torque_y	   R_ground_torque_z	
          1.25000000	          0.00000000	          0.00000000	         -0.00000000	         -0.00000000	          0.00000000	         -0.00000000	          0.09721310	         -8.67272689	         -0.56899804	          0.00004389	          0.00000000	         -0.00000984	          0.00000000	         -0.00000000	          0.00000000	          0.00000000	          0.00234215	          0.00000000	
          1.25500000	          0.00000000	         -0.00000000	         -0.00000000	         -0.00000000	          0.00000000	         -0.00000000	         -8.68240884	         40.90097624	         -1.35944974	         -0.14649149	          0.00000000	          0.20495674	          0.00000000	          0.00000000	          0.00000000	          0.00000000	         -0.09795106	          0.00000000	
          1.26000000	          0.00000000	         -0.00000000	          0.00000000	         -0.00000000	          0.00000000	         -0.00000000	        -19.74799081	        175.23349173	          2.39240654	         -0.24475640	          0.00000000	          0.34100539	          0.00000000	          0.00000000	          0.00000000	          0.00000000	         -0.19897929	          0.00000000	
          1.26500000	         -0.00000000	         -0.00000000	          0.00000000	          0.00000000	          0.00000000	          0.00000000	        -21.73090059	        326.38136005	         14.80973865	         -0.26243511	          0.00000000	          0.36477362	          0.00000000	          0.00000000	          0.00000000	          0.00000000	         -0.24883436	          0.00000000	
          1.27000000	         -0.00000000	          0.00000000	          0.00000000	          0.00000000	          0.00000000	          0.00000000	        -19.02408497	        387.55513438	         29.99272039	         -0.25506500	          0.00000000	          0.35582678	          0.00000000	         -0.00000000	          0.00000000	          0.00000000	         -0.29056187	          0.00000000	
          1.27500000	         -0.00000000	          0.00000000	         -0.00000000	          0.00000000	          0.00000000	          0.00000000	        -22.84878867	        392.72904556	         38.81771683	         -0.24866185	          0.00000000	          0.35102125	          0.00000000	         -0.00000000	          0.00000000	          0.00000000	         -0.49193385	          0.00000000	
          1.28000000	          0.00000000	          0.00000000	         -0.00000000	         -0.00000000	          0.00000000	         -0.00000000	        -36.05317732	        418.99228524	         39.06627189	         -0.24450218	          0.00000000	          0.35132199	          0.00000000	         -0.00000000	          0.00000000	          0.00000000	         -0.85683626	          0.00000000	
          1.28500000	          0.00000000	         -0.00000000	          0.00000000	         -0.00000000	          0.00000000	         -0.00000000	        -58.19347970	        466.00025898	         31.66988695	         -0.23962682	          0.00000000	          0.35271375	          0.00000000	          0.00000000	          0.00000000	          0.00000000	         -1.12149233	          0.00000000	
          1.29000000	          0.00000000	         -0.00000000	          0.00000000	         -0.00000000	          0.00000000	         -0.00000000	        -83.91994356	        498.99914577	         20.31661278	         -0.23379268	          0.00000000	          0.35371574	          0.00000000	          0.00000000	          0.00000000	          0.00000000	         -0.98558383	          0.00000000	
          1.29500000	         -0.00000000	          0.00000000	          0.00000000	          0.00000000	          0.00000000	          0.00000000	       -102.36058230	        515.22841020	         10.72478115	         -0.22765127	          0.00000000	          0.35412948	          0.00000000	          0.00000000	          0.00000000	          0.00000000	         -0.49579106	          0.00000000	
          1.30000000	         -0.00000000	          0.00000000	         -0.00000000	          0.00000000	          0.00000000	          0.00000000	       -108.49479132	        534.89269138	          2.71202394	         -0.22216562	          0.00000000	          0.35487565	          0.00000000	         -0.00000000	          0.00000000	          0.00000000	          0.15918189	          0.00000000	
          1.30500000	          0.00000000	          0.00000000	         -0.00000000	         -0.00000000	          0.00000000	         -0.00000000	       -109.01681312	        563.40349837	         -7.19568021	         -0.21813514	          0.00000000	          0.35575014	          0.00000000	         -0.00000000	          0.00000000	          0.00000000	          0.76878938	          0.00000000	
          1.31000000	          0.00000000	         -0.00000000	         -0.00000000	         -0.00000000	          0.00000000	         -0.00000000	       -112.66424995	        589.35585615	        -17.54004554	         -0.21480836	          0.00000000	          0.35649096	          0.00000000	          0.00000000	          0.00000000	          0.00000000	          1.11343258	          0.00000000	
          1.31500000	          0.00000000	         -0.00000000	          0.00000000	         -0.00000000	          0.00000000	         -0.00000000	       -121.32626089	        603.80596128	        -24.27852347	         -0.21141961	          0.00000000	          0.35712929	          0.00000000	          0.00000000	          0.00000000	          0.00000000	          1.04595538	          0.00000000	
          1.32000000	         -0.00000000	         -0.00000000	          0.00000000	          0.00000000	          0.00000000	          0.00000000	       -130.86751261	        611.49598139	        -26.85934872	         -0.20809097	          0.00000000	          0.35730436	          0.00000000	          0.00000000	          0.00000000	          0.00000000	          0.69727261	          0.00000000	
